<svg width="32" height="32" viewBox="0 0 32 32" fill="none" xmlns="http://www.w3.org/2000/svg">
<path d="M4.99408 14.7706C3.65743 14.7706 2.5653 14.4471 1.71767 13.8C0.902642 13.1189 0.495129 12.0122 0.495129 10.4797C0.495129 8.98127 0.902642 7.87448 1.71767 7.15933C2.5653 6.44417 3.65743 6.0866 4.99408 6.0866H10.2755C10.3407 4.69034 10.8297 3.66869 11.7425 3.02165C12.6879 2.34055 13.9757 2 15.6057 2C17.2358 2 18.4909 2.34055 19.3712 3.02165C20.284 3.66869 20.773 4.69034 20.8382 6.0866H26.3641C27.7007 6.0866 28.7766 6.44417 29.5916 7.15933C30.4392 7.87448 30.863 8.98127 30.863 10.4797C30.863 11.9781 30.4392 13.0679 29.5916 13.749C28.7766 14.4301 27.7007 14.7706 26.3641 14.7706H21.4739L19.8113 17.5801L20.3981 18.755C21.5065 18.4826 22.6965 18.3634 23.9679 18.3975C25.2394 18.3975 26.4456 18.6018 27.5866 19.0105C28.7603 19.3851 29.7383 20.0151 30.5207 20.9005C31.2706 21.6838 31.727 22.6033 31.89 23.659C32.0856 24.7147 32.0204 25.7193 31.6944 26.6728C31.3684 27.5923 30.7815 28.3075 29.9339 28.8183C28.6299 29.6356 27.2606 29.8229 25.8262 29.3802C24.4243 28.9034 23.2833 28.001 22.4031 26.6728C21.8814 25.7874 21.3924 24.9531 20.936 24.1698C20.5122 23.3525 20.0232 22.6884 19.469 22.1776C18.9147 21.6667 18.1812 21.4113 17.2684 21.4113C16.4534 21.4113 15.7524 21.5986 15.1656 21.9732C14.6114 22.3138 14.0409 22.8076 13.4541 23.4546C12.8672 24.1017 12.15 24.8679 11.3024 25.7533C10.4874 26.6388 9.41153 27.6093 8.07488 28.665C6.83604 29.6186 5.6461 30.0613 4.50506 29.9932C3.39663 29.891 2.45119 29.4824 1.66877 28.7672C0.886342 28.0521 0.381025 27.2177 0.152818 26.2642C-0.173193 24.8679 0.0224132 23.659 0.739637 22.6373C1.45686 21.5816 2.6305 20.3727 4.26055 19.0105L9.19962 14.7706H4.99408Z" fill="#FF00AA"/>
</svg>
